<?xml version="1.0" encoding="utf-8"?>
<!-- Generator: Adobe Illustrator 19.0.0, SVG Export Plug-In . SVG Version: 6.00 Build 0)  -->
<svg version="1.1" xmlns="http://www.w3.org/2000/svg" xmlns:xlink="http://www.w3.org/1999/xlink" x="0px" y="0px"
	 viewBox="0 0 566.9 566.9" style="enable-background:new 0 0 566.9 566.9;" xml:space="preserve">
<style type="text/css">
	.st0{fill:#F26F1F;}
</style>
<g id="Ebene_1">
	<path id="XMLID_19_" class="st0" d="M208.8,489.2c4,2.7,8.2,5.3,12.1,8.1c3.9,2.8,7.9,5.5,11.4,8.7c4.7,4.3,9,9,10.6,15.5
		c2.5,10.1-2.4,18.1-12.4,20.8c-8.1,2.1-15.3-0.6-22.5-3.6c-14.6-6.1-26.6-15.9-38.3-26.3c-6.5-5.8-12.4-12.1-17.9-18.7
		c-5.9-7-11.3-14.4-15.4-22.5c-5.9-11.6-12.1-23-16.8-35.1c-0.4-1.1-0.9-2.3-2.1-2.8c-6.2-2.6-10.2-7.8-14-13
		c-6.3-8.8-11.4-18.3-16.1-28c-5.1-10.5-9.8-21.2-15.3-31.5c-2.9-5.4-4.2-11.2-2.6-17.3c0.3-1.1,0.2-2.1-0.4-3.1
		c-5.7-9.4-7.3-19.7-6.8-30.5c0.1-3,0.6-6,0.9-9.1c0.5-4.1,1.6-8,4.5-11.1c0.8-0.8,1-1.7,0.8-2.8c-3.1-15.2,1.1-29,7.9-42.3
		c1.9-3.8,4.7-7.1,8.3-9.5c1.2-0.8,1.7-1.8,1.9-3.2c1.3-10.6,6.7-18.7,14.9-25.3c5.5-4.5,11.4-8.5,17.4-12.2
		c3.8-2.3,8.1-3.5,12.3-4.9c4.3-1.5,5.5-6.4,8.9-9.1c10.3-8.4,22.3-11.8,35.1-13.2c1.6-0.2,3-0.4,4-2c3.3-5.3,8.5-8.4,13.9-11
		c17.7-8.2,36.4-13,55.5-16.2c14.5-2.5,29.2-3.8,43.9-4.9c9.8-0.7,19.7-0.5,29.5-1.3c5.2-0.4,10.5,0.2,15.7,0.4
		c2.1,0.1,3.6-0.6,5.2-2c5-4.7,14-5.2,19-0.4c3,2.8,6.1,3.4,9.7,3.5c4.6,0.2,9.2,0.7,13.8,0.2c3.8-0.5,7.7,0.4,11.6,0.3
		c10.3-0.4,20.6-0.2,30.9,0.3c5.3,0.2,10.7,0.4,15.8,2.3c4.1,1.5,4.6,4.1,1.5,7.3c-2.9,3-6.6,4.9-10,7.6c5.1,1.3,8.1-1.7,11.2-4.5
		c6-5.4,10.5-11.8,13.8-19.1c4-8.8,6.5-17.9,6-27.8c-0.4-7.9-1.5-15.5-5.1-22.7c-4.4-8.8-11.4-14.7-19.4-19.9
		c-11.5-7.5-24.1-11.7-37.3-14.7c-11.2-2.5-22-2.1-33.1,1.7c-19,6.5-37.6,14-55.5,23.2c-9.6,4.9-19,10.1-28.4,15.5
		c-10.5,6-20.9,12.1-31.4,17.9c-11.2,6.2-22.3,12.5-34.1,17.5c-14.5,6.2-29.5,10.9-45,14.1c-13.2,2.7-26.5,4.3-39.9,5.7
		c-8.2,0.9-16.6,0.3-24.8-1.2c-1.6-0.3-4.2-0.4-3.9-2.6c0.3-2.1,2.8-1.5,4.5-1.6c8.7-0.2,17.5,0.4,26.1-1.3
		c10.4-2,20.8-3.9,31.2-6.1c10.8-2.3,21.5-5,31.9-8.8c10-3.6,19.6-8,28.9-13.1c17.2-9.4,34.1-19.4,50.9-29.6
		c16.8-10.2,34.4-18.9,52.2-27.2c1.5-0.7,3.3-0.9,4.6-2.1c-0.5-0.9-1.1-0.5-1.6-0.4c-14.6,3.1-28.9,7.2-43.1,12
		c-18,6.2-35.4,13.7-52.9,21.1c-14.1,6-28.1,12.1-42.6,16.9c-10.8,3.6-21.7,7.3-33.2,8.3c-10.5,0.9-21.1,1.5-31.6-0.2
		c-8.1-1.3-16.2-2.3-24-5.1c-4.7-1.7-9.2-3.9-13.6-6.2c-0.4-0.2-0.8-0.5-1.1-0.8c-0.7-0.7-1.8-1.4-1.2-2.5c0.6-1.1,1.8-0.8,2.7-0.5
		c4,1.1,8,2.2,11.9,3.5c9.6,3.1,19.5,4.3,29.6,4.7c10.4,0.4,20.7-0.1,30.8-2.1c13.2-2.6,25.9-7.2,38.3-12.6
		c8.3-3.6,16.6-7,24.9-10.6c13-5.5,25.6-11.9,38.6-17.2c15.9-6.5,32-12.3,48.6-16.6c16.2-4.2,32.5-7.1,49.3-7.6
		c5.5-0.2,11-0.7,16.5,0c3,0.4,5.8-0.7,8.7-1.4c10.3-2.2,20.7-3.4,31.2-3.5c14.2-0.1,28.1,1.8,41.3,7.6c6.6,2.9,12.6,6.7,18.1,11.6
		c5.4,4.9,10.1,10.3,13.6,16.5c7.1,12.5,8.6,25.8,5.9,39.8c-2.1,10.9-7.1,20.3-13.3,29.2c-8.8,12.7-20.6,22-33.5,30.4
		c-13.4,8.6-27.6,15.6-41.2,23.6c-3.6,2.1-7.4,4.2-9.9,7.8c-1.5,2.2-1.1,3.4,1.5,3.4c3.9,0.1,7.9-0.3,11.8-0.5
		c2.9-0.2,5.9-0.6,8.8-0.6c2,0,4.2,0.2,5.2,2.4c1,2.4-0.7,3.9-2.3,5.1c-3.9,3.2-8.1,5.9-12.6,8c-17,8.2-34.5,14.9-52.4,20.6
		c-15.1,4.8-30.4,9.1-45.8,12.7c-14.4,3.4-28.9,6.8-43.5,9.1c-3.9,0.6-7.7,1.5-11.6,3c3.3,0.8,6.6,1.6,10,2.3
		c17.2,3.4,34.1,7.6,50.6,13.9c8,3.1,15.8,6.6,22.7,11.9c6.3,4.8,11.9,10.2,13.6,18.5c0.6,2.9-0.8,5.6-3.6,6.6
		c-2.4,0.8-5.3-0.2-6.1-2.9c-3.5-11.3-12.9-16.2-22.5-20.7c-10-4.6-20.5-8.3-31.3-11c-14.4-3.6-28.8-7-43.5-9
		c-4.6-0.6-9.1-1.6-13.6-2.4c-0.5-0.1-1.1-0.3-1.8,0.2c0.3,1.2,1.4,1.3,2.2,1.6c8,2.6,15.7,5.9,23.4,9.3c10.3,4.6,20,10.3,28.4,17.9
		c6.7,6,12.1,13.2,14.1,22.3c0.7,3.3-0.4,5.9-3.4,6.9c-2.8,1-5.6-0.5-6.8-3.6c-0.6-1.7-1.2-3.5-1.8-5.2c-1-2.7-2.5-5.2-4.4-7.3
		c-4.9-5.2-10.1-9.8-16.3-13.5c-15.2-9.1-31.7-15.2-48.4-20.6c-7-2.2-14-4.5-21.2-6.5c2,2.2,3.8,4.7,5.5,7.1
		c9.7,13.8,11.4,28.6,5.3,44.3c-1.3,3.4-4.3,4.8-7.3,3.5c-2.4-1.1-3.6-3.2-3-5.8c0.5-2.2,1.2-4.4,1.8-6.7
		c3.4-12.7-0.3-23.4-8.8-32.9c-2.5-2.8-4.9-5.7-9-7.9c5,7.6,8.5,15.1,9.6,23.6c1,8-1,15.2-5,21.9c-1.3,2.2-5.1,3-7.4,1.7
		c-2.2-1.2-3.1-4.8-1.8-7.4c1.2-2.3,2.7-4.4,3.1-7c1.6-10.2-1.6-19-8.1-26.9c-2.3-2.8-4.7-4.6-8.5-3.2c-0.3,0.1-0.6,0.1-0.8,0.1
		c-5.5-1.3-9.3,1.1-12.6,5.4c-1.8,2.2-4.5,3.8-6.9,5.4c-1.7,1.2-1.4,1.9,0.2,2.6c1.7,0.7,3.4,1.4,5.1,2.2
		c10.4,5,16.1,13.7,18.4,24.7c0.7,3.5,1.4,7.1,1.2,10.7c-0.1,2.6-1.2,4.6-3.7,5.2c-2.6,0.6-3.1,2.1-2.9,4.4c0.2,2.4-0.1,4.7-2.4,6.1
		c-3.6,2.2-7.7,0.1-8.1-4.1c-0.4-3.8-0.8-7.5-2.1-11.1c-2.6-6.9-7.6-10.6-14.8-11.6c-3.8-0.6-7.5-0.3-11.2,0.5
		c-1.9,0.4-2.4,1.4-1.8,3.2c1.4,3.8,2.3,7.8,2.2,11.9c0,1.8,1.2,1.6,2.3,1.7c5.2,0.8,10.4,1.5,15,4.4c10,6.5,15.6,15.7,16.7,27.5
		c0.1,1.5,0.5,2.9,1.3,4.2c1.1,1.7,1.9,3.6,2.6,5.5c0.9,2.7,0,5.1-2.3,6.4c-2.4,1.3-5.2,0.7-6.8-1.7c-1.1-1.7-2-3.5-3-5.3
		c-4-7.2-9.9-11.8-18.1-13.2c-0.5-0.1-1.1-0.1-1.6-0.2c-3.9-0.2-4.3,0.3-3,3.9c2.3,6.6,2.7,13.5,3.9,20.3c1.3,7.5,1.6,15,1.7,22.5
		c0.1,5.9,0.5,11.8,0,17.6c-0.1,1.4,0.5,2.3,1.6,2.9c12.7,6.9,25,14.7,38.7,19.5c12.2,4.3,24.6,7.7,37.1,11.1
		c9.8,2.7,19.6,5.1,28.7,9.8c7.1,3.7,12,9,13.3,17.2c1,5.9-1,10.5-5.8,13.9c-5.7,4-12,4.7-18.7,4.1c-8.2-0.6-16.2-2.5-23.9-5.3
		c-0.5-0.2-1-0.3-1.5-0.4C209,488.9,208.9,489.1,208.8,489.2z M467.5,136.7c1.9-0.2,2.6-1.2,3.3-1.9c5.7-5.8,10.9-11.9,15-19
		c6.6-11.6,10-23.7,7.5-37.1c-2.9-15.1-12-25.9-24.9-33.6c-14.3-8.5-30.3-10.5-46.6-10c-0.1,0-0.2,0.2-0.6,0.7
		c7.8,2.3,14.8,5.8,21.7,9.7c14.7,8.3,26.3,19.2,31.3,35.9c3.2,10.6,3.9,21.5,1.6,32.5C474.1,121.6,471.7,129.2,467.5,136.7z
		 M163.3,306.8c-0.3-3.6-1.8-6.6-4.1-9.2c-4.5-5.1-10.2-7.9-17-9c-4.8-0.7-4.8-0.9-6.1,3.5c-0.9,3-0.9,3.1,2.2,3.2
		c8.6,0.3,16.4,2.4,22.3,9.1C161.5,305.3,162.5,306.1,163.3,306.8z M149.1,343.2c-3.6-5-8.2-7.3-13.7-8.3c-4.4-0.8-5-0.5-7.1,3.4
		c-0.3,0.6-0.7,1.1-1,1.6c-0.3,0.5-1,1-0.5,1.7c0.5,0.6,1.2,0.2,1.8,0.1c4.2-1.1,8.5-1.3,12.8-0.4
		C143.9,341.9,146.3,342.5,149.1,343.2z"/>
</g>
<g id="Ebene_2">
</g>
</svg>
